<?xml version="1.0" encoding="iso-8859-1"?>
<!-- Uploaded to: SVG Repo, www.svgrepo.com, Generator: SVG Repo Mixer Tools -->
<svg height="800px" width="800px" version="1.1" id="Layer_1" xmlns="http://www.w3.org/2000/svg" xmlns:xlink="http://www.w3.org/1999/xlink" 
	 viewBox="0 0 491.52 491.52" xml:space="preserve">
<path style="fill:#F6C358;" d="M245.759,165.254l1.956-1.548l35.782-18.011v-30.418c-9.387,15.255-22.797,26.037-37.737,26.037
	c-14.942,0-28.351-10.78-37.738-26.037v30.418l35.783,18.011L245.759,165.254z"/>
<polygon style="fill:#E1E6E9;" points="268.954,183.73 247.684,162.231 245.761,163.424 243.836,162.231 222.567,183.73 
	199.372,147.141 243.836,217.283 245.76,217.283 247.684,217.283 292.149,147.141 "/>
<polygon style="fill:#64798A;" points="243.836,217.283 199.371,147.141 169.052,158.961 229.103,217.283 "/>
<path style="fill:#3A556A;" d="M169.052,158.961l-9.368,3.651c-10.31,4.292-18.402,12.637-22.375,23.075l-10.787,31.595h102.58
	L169.052,158.961z"/>
<polygon style="fill:#EBF0F3;" points="222.567,183.73 243.488,162.582 243.836,162.23 208.63,144.219 207.867,143.829 
	199.371,147.141 "/>
<polygon style="fill:#64798A;" points="247.684,217.283 262.417,217.283 322.467,158.961 292.149,147.141 "/>
<path style="fill:#3A556A;" d="M364.997,217.283l-10.787-31.595c-3.974-10.438-12.064-18.783-22.375-23.075l-9.369-3.651
	l-60.05,58.322H364.997z"/>
<polygon style="fill:#EBF0F3;" points="248.033,162.582 268.954,183.73 292.149,147.141 283.652,143.829 282.889,144.219 
	247.684,162.23 "/>
<g>
	<path style="fill:#F6C358;" d="M294.141,97.339c4.84-0.563,10.035-5.669,12.627-13.058c3.16-9.015,1.234-17.897-4.302-19.837
		c-2.285-0.803-4.822-0.237-7.243,1.271c0.699,3.887,1.076,8.046,1.076,12.491C296.299,84.542,295.533,91.003,294.141,97.339z"/>
	<path style="fill:#F6C358;" d="M196.297,65.714c-2.422-1.508-4.958-2.074-7.243-1.271c-5.537,1.94-7.463,10.823-4.302,19.837
		c2.591,7.389,7.788,12.495,12.627,13.058c-1.392-6.336-2.158-12.797-2.158-19.134C195.221,73.761,195.598,69.601,196.297,65.714z"
		/>
</g>
<g>
	<path style="fill:#FCD462;" d="M245.76,151.764c14.7,0,27.893-10.782,37.129-26.037c5.112-8.444,9.021-18.228,11.252-28.388
		c1.392-6.336,2.158-12.797,2.158-19.134c0-4.444-0.377-8.604-1.076-12.491c-0.072-0.4-0.181-0.767-0.261-1.161
		c-0.693,0.63-1.493,1.163-2.386,1.558c-15.903,7.055-31.125,12.223-45.435,14.863c-1.029,0.189-2.081,0.193-3.11,0.005
		c-9.279-1.692-19.199-4.805-29.46-8.67l5.5,30.073h-21.41c2.31,8.347,5.711,16.311,9.969,23.345
		C217.866,140.984,231.059,151.764,245.76,151.764z"/>
	<path style="fill:#FCD462;" d="M203.531,71.692c-1.255-1.213-1.996-2.868-2.227-4.691c-0.768-0.327-1.518-0.613-2.29-0.946
		c-0.912-0.394-1.733-0.929-2.441-1.569c-0.084,0.417-0.199,0.805-0.276,1.229c-0.699,3.887-1.076,8.046-1.076,12.491
		c0,6.337,0.766,12.798,2.158,19.134c0.249,1.134,0.554,2.253,0.845,3.378L203.531,71.692z"/>
</g>
<g>
	<path style="fill:#64798A;" d="M246.229,51.844c-0.306,0.088-0.631,0.088-0.937,0l-33.286-9.555v16.475
		c2.858,1.185,4.874,3.991,4.874,7.276c0,2.226-0.938,4.218-2.421,5.651l0.113,0.617c10.26,3.865,20.181,6.978,29.46,8.67
		c1.029,0.187,2.081,0.184,3.11-0.005c14.309-2.64,29.532-7.808,45.435-14.863c0.893-0.395,1.693-0.928,2.386-1.558
		c2.104-1.912,3.217-4.763,2.845-7.7c-0.828-6.495-2.849-12.613-5.824-18.142L246.229,51.844z"/>
	<path style="fill:#64798A;" d="M199.014,66.055c0.772,0.333,1.522,0.619,2.29,0.946c-0.043-0.329-0.194-0.619-0.194-0.96
		c0-3.285,2.016-6.093,4.874-7.276V40.562l-6.46-1.853c-2.963,5.505-4.974,11.596-5.808,18.059
		c-0.379,2.946,0.742,5.808,2.857,7.718C197.281,65.126,198.101,65.661,199.014,66.055z"/>
</g>
<g>
	<path style="fill:#2F4859;" d="M327.326,26.601l-81.098,23.277c-0.306,0.088-0.631,0.088-0.937,0l-31.516-9.045l-1.769,0.687v0.77
		l33.286,9.555c0.306,0.088,0.631,0.088,0.937,0l45.754-13.133l35.344-10.143c1.226-0.353,1.533-1.741,0.922-2.614
		C328.044,26.247,327.737,26.483,327.326,26.601z"/>
	<path style="fill:#2F4859;" d="M205.985,39.46c0-0.29,0.168-0.525,0.246-0.793l-42.036-12.065
		c-0.412-0.118-0.718-0.354-0.922-0.647c-0.611,0.873-0.304,2.261,0.922,2.614l35.33,10.14l6.46,1.853V39.46z"/>
</g>
<path style="fill:#3A556A;" d="M164.194,26.601l42.036,12.065c0.257-0.884,0.786-1.67,1.673-2.011l30.101-11.695
	c0.01-2.766,3.475-5.006,7.755-5.006c4.285,0,7.76,2.246,7.76,5.017c0,2.772-3.475,5.018-7.76,5.018
	c-1.079,0-2.105-0.144-3.038-0.402l-28.947,11.245l31.516,9.045c0.306,0.088,0.631,0.088,0.937,0l81.098-23.277
	c0.411-0.118,0.718-0.354,0.922-0.647c0.611-0.873,0.304-2.259-0.922-2.613L246.229,0.065c-0.306-0.087-0.631-0.087-0.937,0
	l-81.098,23.277c-1.226,0.353-1.533,1.74-0.922,2.613C163.476,26.247,163.782,26.483,164.194,26.601z"/>
<path style="fill:#E56353;" d="M212.006,58.765V42.29v-0.77l1.769-0.687l28.947-11.245c-2.774-0.764-4.722-2.542-4.722-4.616
	c0,0,0.005-0.007,0.005-0.012l-30.101,11.695c-0.887,0.342-1.416,1.127-1.673,2.011c-0.078,0.269-0.246,0.504-0.246,0.793v1.102
	v18.203c0.929-0.385,1.941-0.608,3.01-0.608C210.062,58.157,211.077,58.381,212.006,58.765z"/>
<path style="fill:#2F4859;" d="M242.722,29.588c0.933,0.257,1.959,0.402,3.038,0.402c4.285,0,7.76-2.246,7.76-5.018
	c0-2.772-3.475-5.017-7.76-5.017c-4.28,0-7.745,2.239-7.755,5.006c0,0.005-0.005,0.008-0.005,0.008
	C238,27.046,239.948,28.824,242.722,29.588z"/>
<path style="fill:#E56353;" d="M214.571,72.309l-0.113-0.617c-1.419,1.372-3.336,2.234-5.464,2.234
	c-2.129,0-4.044-0.862-5.464-2.234l-5.307,29.026l-0.305,1.665h0.742h21.41L214.571,72.309z"/>
<path style="fill:#D15241;" d="M216.88,66.041c0-3.285-2.015-6.091-4.874-7.276c-0.929-0.384-1.944-0.608-3.011-0.608
	c-1.068,0-2.081,0.223-3.01,0.608c-2.859,1.183-4.874,3.991-4.874,7.276c0,0.341,0.151,0.631,0.194,0.96
	c0.231,1.822,0.972,3.477,2.227,4.691c1.419,1.372,3.335,2.234,5.464,2.234c2.127,0,4.044-0.862,5.464-2.234
	C215.941,70.259,216.88,68.267,216.88,66.041z"/>
<polygon style="fill:#EBF0F3;" points="364.997,217.283 262.417,217.283 247.684,217.283 245.76,217.283 243.836,217.283 
	229.103,217.283 126.523,217.283 100.295,217.283 100.295,251.821 118.823,251.821 372.697,251.821 391.225,251.821 
	391.225,217.283 "/>
<polygon style="fill:#D5D6DB;" points="150.758,491.52 340.762,491.52 372.697,251.821 118.823,251.821 "/>
</svg>