<?xml version="1.0" encoding="iso-8859-1"?>
<!-- Uploaded to: SVG Repo, www.svgrepo.com, Generator: SVG Repo Mixer Tools -->
<svg height="800px" width="800px" version="1.1" id="Layer_1" xmlns="http://www.w3.org/2000/svg" xmlns:xlink="http://www.w3.org/1999/xlink" 
	 viewBox="0 0 512 512" xml:space="preserve">
<path style="fill:#F2F2F2;" d="M471.917,467.641H40.084c-17.71,0-32.067-14.356-32.067-32.067V149.111
	c0-17.711,14.356-32.067,32.067-32.067h431.833c17.711,0,32.067,14.356,32.067,32.067v286.463
	C503.983,453.285,489.627,467.641,471.917,467.641z"/>
<path style="fill:#E5E5E5;" d="M40.084,117.044c-17.71,0-32.067,14.356-32.067,32.067v286.463c0,17.711,14.356,32.067,32.067,32.067
	h353.359L43.785,117.044H40.084z"/>
<polygon style="fill:#FF7452;" points="285.929,140.56 226.071,140.56 213.244,44.36 298.756,44.36 "/>
<polygon style="fill:#E24642;" points="221.51,106.355 226.071,140.56 285.929,140.56 290.49,106.355 "/>
<g>
	<circle style="fill:#FFD652;" cx="143.766" cy="230.347" r="42.756"/>
	<path style="fill:#FFD652;" d="M118.113,283.792h51.307c17.71,0,32.067,14.356,32.067,32.067v68.409H86.046v-68.409
		C86.046,298.148,100.402,283.792,118.113,283.792z"/>
</g>
<g>
	<path style="fill:#FB9D46;" d="M121.319,230.347c0-20.113,13.891-36.973,32.601-41.532c-3.256-0.793-6.654-1.224-10.154-1.224
		c-23.613,0-42.756,19.143-42.756,42.756s19.143,42.756,42.756,42.756c3.501,0,6.899-0.43,10.154-1.224
		C135.211,267.32,121.319,250.46,121.319,230.347z"/>
	<path style="fill:#FB9D46;" d="M138.422,283.792h-20.309c-17.711,0-32.067,14.356-32.067,32.067v68.409h20.309v-68.409
		C106.355,298.148,120.711,283.792,138.422,283.792z"/>
</g>
<circle style="fill:#5AC779;" cx="339.374" cy="324.41" r="59.858"/>
<path style="fill:#00A085;" d="M363.424,360.218c-33.059,0-59.858-26.799-59.858-59.858c0-10.345,2.625-20.075,7.243-28.565
	c-18.642,10.142-31.293,29.9-31.293,52.615c0,33.059,26.799,59.858,59.858,59.858c22.714,0,42.472-12.652,52.615-31.293
	C383.499,357.592,373.769,360.218,363.424,360.218z"/>
<path d="M471.917,109.028H298.221l8.482-63.609c0.306-2.291-0.392-4.602-1.914-6.341c-1.522-1.739-3.721-2.736-6.032-2.736h-85.511
	c-2.311,0-4.51,0.997-6.032,2.736c-1.522,1.739-2.22,4.05-1.914,6.341l8.48,63.609H40.084C17.981,109.028,0,127.009,0,149.111
	v286.463c0,22.103,17.981,40.084,40.084,40.084H159.8c4.427,0,8.017-3.588,8.017-8.017c0-4.428-3.589-8.017-8.017-8.017H40.084
	c-13.262,0-24.05-10.789-24.05-24.05V149.111c0-13.261,10.788-24.05,24.05-24.05h175.833l2.207,16.558
	c0.531,3.983,3.928,6.957,7.946,6.957h59.858c4.018,0,7.416-2.975,7.946-6.957l2.209-16.558h175.833
	c13.262,0,24.05,10.789,24.05,24.05v286.463c0,13.261-10.788,24.05-24.05,24.05H198.28c-4.427,0-8.017,3.588-8.017,8.017
	c0,4.428,3.589,8.017,8.017,8.017h273.637c22.103,0,40.083-17.981,40.083-40.084V149.111
	C512,127.009,494.019,109.028,471.917,109.028z M233.089,132.543L222.4,52.376h67.198l-10.689,80.167H233.089z"/>
<path d="M78.029,315.859v68.409c0,4.428,3.589,8.017,8.017,8.017h115.441c4.427,0,8.017-3.588,8.017-8.017v-68.409
	c0-22.103-17.981-40.083-40.084-40.083h-3.017c16.663-8.337,28.136-25.564,28.136-45.428c0-27.995-22.777-50.772-50.772-50.772
	s-50.772,22.777-50.772,50.772c0,19.864,11.474,37.091,28.136,45.428h-3.017C96.01,275.775,78.029,293.756,78.029,315.859z
	 M109.027,230.347c0-19.156,15.584-34.739,34.739-34.739c19.155,0,34.739,15.583,34.739,34.739s-15.584,34.739-34.739,34.739
	C124.612,265.086,109.027,249.503,109.027,230.347z M193.47,315.859v60.392H94.063v-60.392c0-13.261,10.788-24.05,24.05-24.05
	h51.307C182.681,291.808,193.47,302.598,193.47,315.859z"/>
<path d="M248.518,231.95h179.574c4.427,0,8.017-3.588,8.017-8.017s-3.589-8.017-8.017-8.017H248.518
	c-4.427,0-8.017,3.588-8.017,8.017S244.09,231.95,248.518,231.95z"/>
<path d="M428.092,197.746c4.427,0,8.017-3.588,8.017-8.017s-3.589-8.017-8.017-8.017h-48.1c-4.427,0-8.017,3.588-8.017,8.017
	s3.589,8.017,8.017,8.017H428.092z"/>
<path d="M248.518,197.746h99.407c4.427,0,8.017-3.588,8.017-8.017s-3.589-8.017-8.017-8.017h-99.407
	c-4.427,0-8.017,3.588-8.017,8.017S244.09,197.746,248.518,197.746z"/>
<path d="M86.046,430.765h342.046c4.427,0,8.017-3.588,8.017-8.017s-3.589-8.017-8.017-8.017H86.046
	c-4.427,0-8.017,3.588-8.017,8.017S81.619,430.765,86.046,430.765z"/>
<path d="M271.499,324.41c0,37.426,30.448,67.875,67.875,67.875s67.875-30.448,67.875-67.875s-30.448-67.875-67.875-67.875
	S271.499,286.983,271.499,324.41z M391.215,324.41c0,28.585-23.256,51.841-51.841,51.841c-28.585,0-51.841-23.256-51.841-51.841
	c0-28.585,23.256-51.841,51.841-51.841C367.959,272.568,391.215,295.824,391.215,324.41z"/>
<path d="M321.817,312.633c-2.962-3.291-8.032-3.557-11.322-0.595c-3.291,2.962-3.558,8.031-0.596,11.322l19.24,21.378
	c1.582,1.757,3.767,2.653,5.961,2.653c1.875,0,3.757-0.653,5.277-1.983l34.205-29.929c3.332-2.916,3.67-7.98,0.755-11.312
	c-2.916-3.333-7.98-3.67-11.312-0.755l-28.255,24.724L321.817,312.633z"/>
</svg>