<?xml version="1.0" encoding="iso-8859-1"?>
<!-- Uploaded to: SVG Repo, www.svgrepo.com, Generator: SVG Repo Mixer Tools -->
<svg height="800px" width="800px" version="1.1" id="Layer_1" xmlns="http://www.w3.org/2000/svg" xmlns:xlink="http://www.w3.org/1999/xlink" 
	 viewBox="0 0 503.04 503.04" xml:space="preserve">
<g>
	<polygon style="fill:#80D6FA;" points="38.187,358.187 4.053,358.187 38.187,417.92 4.053,477.653 89.387,477.653 89.387,375.253 
		89.387,358.187 	"/>
	<polygon style="fill:#80D6FA;" points="464.853,358.187 413.653,358.187 413.653,375.253 413.653,477.653 498.987,477.653 
		464.853,417.92 498.987,358.187 	"/>
	<polygon style="fill:#80D6FA;" points="413.653,477.653 413.653,494.72 89.387,494.72 89.387,477.653 89.387,375.253 
		413.653,375.253 	"/>
</g>
<g transform="translate(5 2)">
	<path style="fill:#FFE079;" d="M357.453,424.453L343.8,435.547l5.973,17.067l-17.067-7.68l-17.067,7.68l5.973-17.067l-15.36-11.093
		h17.067l8.533-17.067l8.533,17.067H357.453z M272.12,424.453l-13.653,11.093l5.973,17.067l-17.067-7.68l-17.067,7.68l5.973-17.067
		l-15.36-11.093h17.067l8.533-17.067l8.533,17.067H272.12z M186.787,424.453l-13.653,11.093l5.973,17.067l-17.067-7.68l-17.067,7.68
		l5.973-17.067l-15.36-11.093h17.067l8.533-17.067l8.533,17.067H186.787z"/>
	<path style="fill:#ECF4F7;" d="M459.853,125.787v230.4h-51.2v17.067H84.387v-17.067h-51.2V40.453
		c0-18.773,15.36-34.133,34.133-34.133h273.067v85.333c0,18.773,15.36,34.133,34.133,34.133H459.853z"/>
	<path style="fill:#AAB1BA;" d="M459.853,125.787H374.52c-18.773,0-34.133-15.36-34.133-34.133V6.32L459.853,125.787z"/>
</g>
<path style="fill:#51565F;" d="M413.653,498.987H89.387c-2.56,0-4.267-1.707-4.267-4.267v-12.8H4.053
	c-1.707,0-2.56-0.853-3.413-1.707c-0.853-1.707-0.853-2.56,0-4.267l33.28-58.027L0.64,359.893c-0.853-1.707-0.853-2.56,0-4.267
	c0.853-1.707,2.56-1.707,3.413-1.707h51.2c2.56,0,4.267,1.707,4.267,4.267s-1.707,4.267-4.267,4.267h-43.52l30.72,53.76
	c0.853,1.707,0.853,2.56,0,4.267l-30.72,53.76H85.12V358.187c0-2.56,1.707-4.267,4.267-4.267s4.267,1.707,4.267,4.267v12.8H379.52
	c2.56,0,4.267,1.707,4.267,4.267c0,2.56-1.707,4.267-4.267,4.267H93.653v110.933h315.733V358.187c0-2.56,1.707-4.267,4.267-4.267
	h85.333c1.707,0,2.56,0.853,3.413,1.707c0.853,1.707,0.853,2.56,0,4.267l-33.28,58.027l33.28,58.027c0.853,1.707,0.853,2.56,0,4.267
	c-0.853,1.707-2.56,1.707-3.413,1.707h-51.2c-2.56,0-4.267-1.707-4.267-4.267c0-2.56,1.707-4.267,4.267-4.267h43.52l-30.72-53.76
	c-0.853-1.707-0.853-2.56,0-4.267l30.72-53.76H417.92v133.12C417.92,497.28,416.213,498.987,413.653,498.987z M234.453,458.88
	c-0.853,0-1.707,0-2.56-0.853c-0.853-0.853-1.707-2.56-0.853-4.267l5.12-14.507l-11.947-9.387c-1.707-0.853-1.707-3.413-1.707-5.12
	c0-1.707,2.56-2.56,4.267-2.56h14.507l7.68-14.507c1.707-2.56,5.973-2.56,7.68,0l7.68,14.507h14.507c1.707,0,3.413,0.853,4.267,2.56
	c0.853,1.707,0,3.413-1.707,5.12l-11.947,9.387l5.12,13.653c0.853,1.707,0,3.413-0.853,4.267c-0.853,0.853-3.413,1.707-4.267,0.853
	l-15.36-6.827l-15.36,6.827C236.16,458.88,235.307,458.88,234.453,458.88z M251.52,442.667c0.853,0,0.853,0,1.707,0l7.68,3.413
	l-2.56-7.68c-0.853-1.707,0-3.413,1.707-5.12l4.267-3.413h-5.12c-1.707,0-3.413-0.853-3.413-2.56l-5.12-9.387l-5.12,9.387
	c-0.853,1.707-2.56,2.56-3.413,2.56h-4.267l4.267,3.413c1.707,0.853,2.56,3.413,1.707,5.12l-2.56,7.68l7.68-3.413
	C250.667,442.667,251.52,442.667,251.52,442.667z M149.12,458.88c-0.853,0-1.707,0-2.56-0.853c-0.853-0.853-1.707-2.56-0.853-4.267
	l5.12-14.507l-11.947-9.387c-1.707-0.853-1.707-3.413-1.707-5.12c0-1.707,2.56-2.56,4.267-2.56h14.507l7.68-14.507
	c1.707-2.56,5.973-2.56,7.68,0l7.68,14.507h14.507c1.707,0,3.413,0.853,4.267,2.56c0.853,1.707,0,3.413-1.707,5.12l-11.947,9.387
	l5.12,13.653c0.853,1.707,0,3.413-0.853,4.267c-0.853,0.853-3.413,1.707-4.267,0.853l-15.36-6.827l-15.36,6.827
	C150.827,458.88,149.973,458.88,149.12,458.88z M166.187,442.667c0.853,0,0.853,0,1.707,0l7.68,3.413l-2.56-7.68
	c-0.853-1.707,0-3.413,1.707-4.267l4.267-3.413h-5.12c-1.707,0-3.413-0.853-3.413-2.56l-5.12-9.387l-5.12,9.387
	c-0.853,1.707-2.56,2.56-3.413,2.56h-4.267l4.267,3.413c1.707,0.853,2.56,3.413,1.707,5.12l-2.56,7.68l7.68-3.413
	C165.333,442.667,166.187,442.667,166.187,442.667z M319.787,458.88c-0.853,0-1.707,0-2.56-0.853
	c-0.853-0.853-1.707-2.56-0.853-4.267l5.12-14.507l-11.947-9.387c-1.707-0.853-1.707-3.413-1.707-5.12
	c0.853-1.707,2.56-2.56,4.267-2.56h14.507l7.68-14.507c1.707-2.56,5.973-2.56,7.68,0l7.68,14.507h14.507
	c1.707,0,3.413,0.853,4.267,2.56c0.853,1.707,0,3.413-1.707,5.12l-11.947,9.387l5.12,13.653c0.853,1.707,0,3.413-0.853,4.267
	c-0.853,0.853-3.413,1.707-4.267,0.853l-15.36-6.827l-15.36,6.827C321.493,458.88,320.64,458.88,319.787,458.88z M336.853,442.667
	c0.853,0,0.853,0,1.707,0l7.68,3.413l-2.56-7.68c-0.853-1.707,0-3.413,1.707-5.12l4.267-3.413h-5.12
	c-1.707,0-3.413-0.853-3.413-2.56L336,417.92l-5.12,9.387c-0.853,1.707-2.56,2.56-3.413,2.56H323.2l4.267,3.413
	c1.707,0.853,2.56,3.413,1.707,5.12l-2.56,7.68l7.68-3.413C336,442.667,336.853,442.667,336.853,442.667z M464.853,328.32
	c-2.56,0-4.267-1.707-4.267-4.267v-192H379.52c-21.333,0-38.4-17.067-38.4-38.4V50.987c0-2.56,1.707-4.267,4.267-4.267
	c2.56,0,4.267,1.707,4.267,4.267v42.667c0,16.213,13.653,29.867,29.867,29.867h85.333c2.56,0,4.267,1.707,4.267,4.267v196.267
	C469.12,326.613,467.413,328.32,464.853,328.32z M38.187,328.32c-2.56,0-4.267-1.707-4.267-4.267v-281.6
	c0-21.333,17.067-38.4,38.4-38.4h273.067c0.853,0,2.56,0.853,3.413,0.853l85.333,85.333c1.707,1.707,1.707,4.267,0,5.973
	c-1.707,1.707-4.267,1.707-5.973,0l-84.48-84.48H72.32c-16.213,0-29.867,13.653-29.867,29.867v281.6
	C42.453,326.613,40.747,328.32,38.187,328.32z M362.453,319.787H225.92c-2.56,0-4.267-1.707-4.267-4.267
	c0-2.56,1.707-4.267,4.267-4.267h136.533c2.56,0,4.267,1.707,4.267,4.267C366.72,318.08,365.013,319.787,362.453,319.787z
	 M191.787,319.787H123.52c-2.56,0-4.267-1.707-4.267-4.267c0-2.56,1.707-4.267,4.267-4.267h68.267c2.56,0,4.267,1.707,4.267,4.267
	C196.053,318.08,194.347,319.787,191.787,319.787z M345.387,268.587h-51.2c-2.56,0-4.267-1.707-4.267-4.267
	c0-2.56,1.707-4.267,4.267-4.267h51.2c2.56,0,4.267,1.707,4.267,4.267C349.653,266.88,347.947,268.587,345.387,268.587z
	 M260.053,268.587H225.92c-2.56,0-4.267-1.707-4.267-4.267c0-2.56,1.707-4.267,4.267-4.267h34.133c2.56,0,4.267,1.707,4.267,4.267
	C264.32,266.88,262.613,268.587,260.053,268.587z M191.787,268.587H123.52c-2.56,0-4.267-1.707-4.267-4.267
	c0-2.56,1.707-4.267,4.267-4.267h68.267c2.56,0,4.267,1.707,4.267,4.267C196.053,266.88,194.347,268.587,191.787,268.587z
	 M379.52,217.387h-68.267c-2.56,0-4.267-1.707-4.267-4.267c0-2.56,1.707-4.267,4.267-4.267h68.267c2.56,0,4.267,1.707,4.267,4.267
	C383.787,215.68,382.08,217.387,379.52,217.387z M277.12,217.387h-153.6c-2.56,0-4.267-1.707-4.267-4.267
	c0-2.56,1.707-4.267,4.267-4.267h153.6c2.56,0,4.267,1.707,4.267,4.267C281.387,215.68,279.68,217.387,277.12,217.387z
	 M208.853,149.12H123.52c-2.56,0-4.267-1.707-4.267-4.267c0-2.56,1.707-4.267,4.267-4.267h85.333c2.56,0,4.267,1.707,4.267,4.267
	C213.12,147.413,211.413,149.12,208.853,149.12z"/>
</svg>